<?xml version="1.0" encoding="utf-8"?>
<!-- Generator: Adobe Illustrator 17.0.0, SVG Export Plug-In . SVG Version: 6.00 Build 0)  -->
<!DOCTYPE svg PUBLIC "-//W3C//DTD SVG 1.1//EN" "http://www.w3.org/Graphics/SVG/1.1/DTD/svg11.dtd">
<svg version="1.1" xmlns="http://www.w3.org/2000/svg" xmlns:xlink="http://www.w3.org/1999/xlink" x="0px" y="0px" width="18px"
	 height="18px" viewBox="0 0 18 18" enable-background="new 0 0 18 18" xml:space="preserve">
<path fill="#505050" d="M10.911,5.633c-0.405-0.34-0.958-0.51-1.658-0.51c-0.312,0-0.644,0.035-0.994,0.105
	c-0.35,0.07-0.639,0.149-0.867,0.237v0.996h0.049c0.182-0.114,0.43-0.226,0.745-0.337C8.5,6.014,8.833,5.958,9.185,5.958
	c0.394,0,0.715,0.09,0.964,0.271c0.249,0.181,0.373,0.455,0.373,0.823c0,0.28-0.052,0.51-0.156,0.691
	c-0.104,0.181-0.251,0.356-0.439,0.525C9.771,8.414,9.57,8.559,9.324,8.702C9.078,8.846,8.849,8.977,8.638,9.098v1.489h0.874V9.488
	c0.267-0.153,0.519-0.311,0.757-0.474c0.238-0.163,0.448-0.337,0.63-0.523c0.186-0.192,0.335-0.413,0.449-0.662
	c0.114-0.249,0.171-0.533,0.171-0.852C11.519,6.422,11.316,5.974,10.911,5.633z"/>
<rect x="8.594" y="11.51" fill="#505050" width="0.996" height="1.03"/>
<g>
	<path fill="#505050" d="M9,18c-4.962,0-9-4.037-9-9c0-4.962,4.038-9,9-9c4.963,0,9,4.038,9,9C18,13.963,13.963,18,9,18z M9,1
		C4.589,1,1,4.589,1,9s3.589,8,8,8s8-3.589,8-8S13.411,1,9,1z"/>
</g>
</svg>
